<?xml version="1.0" standalone="no"?>
<!DOCTYPE svg PUBLIC "-//W3C//DTD SVG 20010904//EN"
 "http://www.w3.org/TR/2001/REC-SVG-20010904/DTD/svg10.dtd">
<svg version="1.0" xmlns="http://www.w3.org/2000/svg"
 width="1920.000000pt" height="1080.000000pt" viewBox="0 0 1920.000000 1080.000000"
 preserveAspectRatio="xMidYMid meet">
<metadata>
Created by potrace 1.16, written by Peter Selinger 2001-2019
</metadata>
<g transform="translate(0.000000,1080.000000) scale(0.100000,-0.100000)"
fill="#000000" stroke="none">
<path d="M19182 8948 c2 -7 -3 -12 -9 -10 -7 1 -12 -4 -10 -10 1 -7 -4 -12
-10 -10 -7 1 -12 -4 -10 -10 1 -7 -4 -12 -10 -10 -7 1 -12 -4 -10 -10 1 -7 -4
-12 -10 -10 -7 1 -12 -4 -10 -10 1 -7 -4 -12 -10 -10 -7 1 -12 -4 -10 -10 1
-7 -4 -12 -10 -10 -7 1 -12 -4 -10 -10 1 -7 -4 -12 -10 -10 -7 1 -12 -4 -10
-10 1 -7 -4 -12 -10 -10 -7 1 -12 -4 -10 -10 1 -7 -4 -12 -10 -10 -7 1 -12 -4
-10 -10 1 -7 -4 -12 -10 -10 -7 1 -12 -4 -10 -10 1 -7 -4 -12 -10 -11 -7 2
-12 -3 -10 -10 1 -6 -4 -11 -10 -10 -7 2 -12 -3 -10 -10 1 -6 -4 -11 -10 -10
-7 2 -12 -3 -10 -10 1 -6 -4 -11 -10 -10 -7 2 -12 -3 -10 -10 1 -6 -4 -11 -10
-9 -7 1 -12 -4 -10 -10 1 -7 -4 -12 -10 -10 -7 1 -12 -4 -10 -10 1 -7 -4 -12
-10 -10 -7 1 -12 -4 -10 -10 1 -7 -4 -12 -10 -10 -7 1 -12 -4 -10 -10 1 -7 -4
-12 -10 -10 -7 1 -12 -4 -10 -10 1 -7 -4 -12 -11 -10 -6 1 -11 -4 -10 -10 2
-7 -3 -12 -10 -10 -6 1 -11 -4 -10 -10 2 -7 -3 -12 -10 -10 -6 1 -11 -4 -10
-10 2 -7 -3 -12 -10 -10 -6 1 -11 -4 -10 -10 2 -7 -3 -12 -10 -10 -6 1 -11 -4
-10 -10 2 -7 -3 -12 -10 -10 -6 1 -11 -4 -10 -10 2 -7 -3 -12 -10 -10 -6 1
-11 -4 -10 -10 2 -7 -3 -12 -10 -10 -6 1 -11 -4 -10 -10 2 -7 -3 -12 -10 -10
-6 1 -11 -4 -10 -10 2 -7 -3 -12 -9 -11 -7 2 -12 -3 -10 -10 1 -6 -4 -11 -10
-10 -7 2 -12 -3 -10 -10 1 -6 -4 -11 -10 -10 -7 2 -12 -3 -10 -10 1 -6 -4 -11
-10 -10 -7 2 -12 -3 -10 -10 1 -6 -4 -11 -10 -10 -7 2 -12 -3 -10 -10 1 -6 -4
-11 -10 -10 -7 2 -12 -3 -10 -10 1 -6 -4 -11 -10 -10 -7 2 -12 -3 -10 -10 1
-6 -4 -11 -10 -10 -7 2 -12 -3 -10 -10 1 -6 -4 -11 -10 -10 -7 2 -12 -3 -10
-10 1 -6 -4 -11 -10 -10 -7 2 -12 -3 -10 -10 1 -6 -4 -11 -10 -10 -7 2 -12 -3
-10 -10 1 -6 -4 -11 -10 -10 -7 2 -12 -3 -10 -10 1 -6 -4 -11 -10 -10 -7 2
-12 -3 -10 -10 1 -6 -4 -11 -10 -10 -7 2 -12 -3 -10 -10 1 -6 -4 -11 -10 -10
-7 2 -12 -3 -10 -10 1 -6 -4 -11 -10 -10 -7 2 -12 -3 -10 -10 1 -6 -4 -11 -10
-10 -7 2 -12 -3 -10 -10 1 -6 -4 -11 -10 -10 -7 2 -12 -3 -10 -10 1 -6 -4 -11
-10 -10 -7 2 -12 -3 -10 -10 1 -6 -4 -11 -10 -10 -7 2 -12 -3 -10 -10 1 -6 -4
-11 -10 -10 -7 2 -12 -3 -10 -10 1 -6 -4 -11 -10 -10 -7 2 -12 -3 -10 -10 1
-6 -4 -11 -10 -10 -7 2 -12 -3 -10 -10 1 -6 -4 -11 -10 -10 -7 2 -12 -3 -10
-10 1 -6 -4 -11 -10 -10 -7 2 -12 -3 -10 -10 1 -6 -4 -11 -10 -10 -7 2 -12 -3
-10 -10 1 -6 -4 -11 -10 -10 -7 2 -12 -3 -10 -10 1 -6 -4 -11 -10 -10 -7 2
-12 -3 -10 -10 1 -6 -4 -11 -10 -10 -7 2 -12 -3 -10 -10 1 -6 -4 -11 -11 -9
-6 1 -11 -4 -10 -10 2 -7 -3 -12 -10 -10 -6 1 -11 -4 -10 -10 2 -7 -3 -12 -10
-10 -6 1 -11 -4 -10 -10 2 -7 -3 -12 -10 -10 -6 1 -11 -4 -10 -10 2 -7 -3 -12
-10 -10 -6 1 -11 -4 -10 -10 2 -7 -3 -12 -10 -10 -6 1 -11 -4 -10 -10 2 -7 -3
-12 -10 -10 -6 1 -11 -4 -10 -10 2 -7 -3 -12 -10 -10 -6 1 -11 -4 -10 -10 2
-7 -3 -12 -10 -10 -6 1 -11 -4 -10 -10 2 -7 -3 -12 -10 -10 -6 1 -11 -4 -10
-10 2 -7 -3 -12 -10 -10 -6 1 -11 -4 -10 -10 2 -7 -3 -12 -10 -10 -6 1 -11 -4
-10 -10 2 -7 -3 -12 -10 -10 -6 1 -11 -4 -10 -10 2 -7 -3 -12 -10 -10 -6 1
-11 -4 -10 -10 2 -7 -3 -12 -10 -10 -6 1 -11 -4 -10 -10 2 -7 -3 -12 -10 -10
-6 1 -11 -4 -10 -10 2 -7 -3 -12 -10 -10 -6 1 -11 -4 -10 -10 2 -7 -3 -12 -10
-10 -6 1 -11 -4 -10 -10 2 -7 -3 -12 -10 -10 -6 1 -11 -4 -10 -10 2 -7 -3 -12
-10 -10 -6 1 -11 -4 -10 -10 2 -7 -3 -12 -10 -10 -6 1 -11 -4 -10 -10 2 -7 -3
-12 -10 -10 -6 1 -11 -4 -10 -10 2 -7 -3 -12 -10 -10 -6 1 -11 -4 -10 -10 2
-7 -3 -12 -10 -10 -6 1 -11 -4 -10 -10 2 -7 -3 -12 -10 -10 -6 1 -11 -4 -10
-10 2 -7 -3 -12 -10 -10 -6 1 -11 -4 -10 -10 2 -7 -3 -12 -10 -10 -6 1 -11 -4
-10 -10 2 -7 -3 -12 -10 -10 -6 1 -11 -4 -10 -10 2 -7 -3 -12 -10 -10 -6 1
-11 -4 -10 -10 2 -7 -3 -12 -10 -10 -6 1 -11 -4 -10 -10 2 -7 -3 -12 -10 -10
-6 1 -11 -4 -10 -10 2 -7 -3 -12 -10 -10 -6 1 -11 -4 -10 -10 2 -7 -3 -12 -10
-10 -6 1 -11 -4 -10 -10 2 -7 -3 -12 -10 -10 -6 1 -11 -4 -10 -10 2 -7 -3 -12
-10 -10 -6 1 -11 -4 -10 -10 2 -7 -3 -12 -10 -10 -6 1 -11 -4 -10 -10 2 -7 -3
-12 -10 -10 -6 1 -11 -4 -10 -10 2 -7 -3 -12 -10 -10 -6 1 -11 -4 -10 -10 2
-7 -3 -12 -10 -10 -6 1 -11 -4 -10 -10 2 -7 -3 -12 -10 -10 -6 1 -11 -4 -10
-10 2 -7 -3 -12 -10 -10 -6 1 -11 -4 -10 -10 2 -7 -3 -12 -10 -10 -6 1 -11 -4
-10 -10 2 -7 -3 -12 -10 -10 -6 1 -11 -4 -10 -10 2 -7 -3 -12 -10 -10 -6 1
-11 -4 -10 -10 2 -7 -3 -12 -10 -10 -6 1 -11 -4 -10 -10 2 -7 -3 -12 -10 -10
-6 1 -11 -4 -10 -10 2 -7 -3 -12 -10 -10 -6 1 -11 -4 -10 -10 2 -7 -3 -12 -10
-10 -6 1 -11 -4 -10 -10 2 -7 -3 -12 -10 -10 -6 1 -11 -4 -10 -10 2 -7 -3 -12
-10 -10 -6 1 -11 -4 -10 -10 2 -7 -3 -12 -10 -10 -6 1 -11 -4 -10 -10 2 -7 -3
-12 -10 -10 -6 1 -11 -4 -10 -10 2 -7 -3 -12 -10 -10 -6 1 -11 -4 -10 -10 2
-7 -3 -12 -10 -10 -6 1 -11 -4 -10 -10 2 -7 -3 -12 -10 -10 -6 1 -11 -4 -10
-10 2 -7 -3 -12 -10 -10 -6 1 -11 -4 -10 -10 2 -7 -3 -12 -10 -10 -6 1 -11 -4
-10 -10 2 -7 -3 -12 -9 -11 -7 2 -12 -3 -10 -10 1 -6 -4 -11 -10 -10 -7 2 -12
-3 -10 -10 1 -6 -4 -11 -10 -10 -7 2 -12 -3 -10 -10 1 -6 -4 -11 -10 -10 -7 2
-12 -3 -10 -10 1 -6 -4 -11 -10 -10 -7 2 -12 -3 -10 -10 1 -6 -4 -11 -10 -10
-7 2 -12 -3 -10 -10 1 -6 -4 -11 -10 -10 -7 2 -12 -3 -10 -10 1 -6 -4 -11 -10
-10 -7 2 -12 -3 -10 -10 1 -6 -4 -11 -10 -10 -7 2 -12 -3 -10 -10 1 -6 -4 -11
-10 -10 -7 2 -12 -3 -10 -10 1 -6 -4 -11 -10 -10 -7 2 -12 -3 -10 -10 1 -6 -4
-11 -10 -10 -7 2 -12 -3 -10 -10 1 -6 -4 -11 -10 -10 -7 2 -12 -3 -10 -10 1
-6 -4 -11 -10 -10 -7 2 -12 -3 -10 -10 1 -6 -4 -11 -10 -10 -7 2 -12 -3 -10
-10 1 -6 -4 -11 -10 -10 -7 2 -12 -3 -10 -10 1 -6 -4 -11 -10 -10 -7 2 -12 -3
-10 -10 1 -6 -4 -11 -10 -10 -7 2 -12 -3 -10 -10 1 -6 -4 -11 -10 -10 -7 2
-12 -3 -10 -10 1 -6 -4 -11 -10 -10 -7 2 -12 -3 -10 -10 1 -6 -4 -11 -10 -10
-7 2 -12 -3 -10 -10 1 -6 -4 -11 -10 -10 -7 2 -12 -3 -10 -10 1 -6 -4 -11 -10
-10 -7 2 -12 -3 -10 -10 1 -6 -4 -11 -10 -10 -7 2 -12 -3 -10 -10 1 -6 -4 -11
-10 -10 -7 2 -12 -3 -10 -10 1 -6 -4 -11 -10 -10 -7 2 -12 -3 -10 -10 1 -6 -4
-11 -10 -10 -7 2 -12 -3 -10 -10 1 -6 -4 -11 -10 -10 -7 2 -12 -3 -10 -10 1
-6 -4 -11 -10 -10 -7 2 -12 -3 -10 -10 1 -6 -4 -11 -10 -10 -7 2 -12 -3 -10
-10 1 -6 -4 -11 -10 -10 -7 2 -12 -3 -10 -10 1 -6 -4 -11 -10 -10 -7 2 -12 -3
-10 -10 1 -6 -4 -11 -10 -10 -7 2 -12 -3 -10 -10 1 -6 -4 -11 -10 -10 -7 2
-12 -3 -10 -10 1 -6 -4 -11 -10 -10 -7 2 -12 -3 -10 -10 1 -6 -4 -11 -10 -10
-7 2 -12 -3 -10 -10 1 -6 -4 -11 -10 -10 -7 2 -12 -3 -10 -10 1 -6 -4 -11 -10
-10 -7 2 -12 -3 -10 -10 1 -6 -4 -11 -10 -10 -7 2 -12 -3 -10 -10 1 -6 -4 -11
-10 -10 -7 2 -12 -3 -10 -10 1 -6 -4 -11 -10 -10 -7 2 -12 -3 -10 -10 1 -6 -4
-11 -10 -10 -7 2 -12 -3 -10 -10 1 -6 -4 -11 -10 -10 -7 2 -12 -3 -10 -10 1
-6 -4 -11 -10 -10 -7 2 -12 -3 -10 -10 1 -6 -4 -11 -10 -10 -7 2 -12 -3 -10
-10 1 -6 -4 -11 -10 -10 -7 2 -12 -3 -10 -10 1 -6 -4 -11 -10 -10 -7 2 -12 -3
-10 -10 1 -6 -3 -11 -9 -10 -6 1 -11 -6 -10 -15 0 -9 -3 -17 -9 -17 -5 0 -9 3
-8 6 1 3 -4 6 -12 6 -8 0 -13 -5 -12 -11 1 -6 -4 -10 -10 -9 -7 2 -12 -3 -10
-10 1 -6 -3 -11 -9 -10 -6 1 -11 -4 -11 -12 0 -8 3 -13 6 -12 3 1 6 -2 6 -8 0
-5 -3 -9 -7 -8 -5 2 -7 0 -5 -5 1 -4 -3 -7 -8 -7 -6 0 -9 3 -8 6 1 3 -4 6 -12
6 -8 0 -13 -5 -12 -11 1 -6 -4 -10 -10 -9 -7 2 -12 -3 -10 -10 1 -6 -3 -11 -9
-10 -6 1 -11 -4 -11 -12 0 -8 3 -13 6 -12 3 1 6 -2 6 -8 0 -5 -3 -9 -7 -8 -5
2 -7 0 -5 -5 1 -4 -3 -7 -8 -7 -5 0 -9 3 -8 6 1 3 -4 6 -12 6 -8 0 -13 -5 -12
-11 1 -6 -4 -10 -10 -9 -7 2 -12 -3 -10 -10 1 -6 -3 -11 -9 -10 -6 1 -11 -4
-11 -12 0 -8 3 -13 6 -12 3 1 6 -2 6 -8 0 -5 -3 -9 -7 -8 -5 2 -7 0 -5 -5 1
-4 -3 -7 -8 -7 -6 0 -9 3 -8 6 1 3 -4 6 -12 6 -8 0 -13 -5 -12 -11 1 -6 -4
-10 -10 -9 -7 2 -12 -3 -10 -10 1 -6 -3 -11 -9 -10 -6 1 -11 -4 -11 -12 0 -8
3 -13 6 -12 3 1 6 -3 6 -8 0 -6 -3 -9 -7 -8 -5 2 -7 0 -5 -5 1 -4 -3 -7 -8 -7
-6 0 -9 3 -8 6 1 3 -4 6 -12 6 -8 0 -13 -5 -12 -11 1 -6 -4 -10 -10 -9 -7 2
-12 -3 -10 -10 1 -6 -3 -11 -9 -10 -6 1 -11 -4 -11 -12 0 -8 3 -13 6 -12 3 1
6 -2 6 -8 0 -5 -3 -9 -7 -8 -5 2 -7 0 -5 -5 1 -4 -3 -7 -8 -7 -6 0 -9 3 -8 6
1 3 -4 6 -12 6 -8 0 -13 -5 -12 -11 1 -6 -4 -10 -10 -9 -7 2 -12 -3 -10 -10 1
-6 -3 -11 -9 -10 -6 1 -11 -4 -11 -12 0 -8 3 -13 6 -12 3 1 6 -3 6 -8 0 -5 -3
-9 -7 -8 -5 2 -7 0 -5 -5 1 -4 -2 -7 -8 -7 -5 0 -9 3 -8 6 1 3 -4 6 -12 6 -8
0 -13 -5 -12 -11 1 -6 -4 -10 -10 -9 -7 2 -12 -3 -10 -10 1 -6 -3 -11 -9 -10
-6 1 -11 -4 -11 -12 0 -8 3 -13 6 -12 3 1 6 -2 6 -8 0 -5 -3 -9 -7 -8 -5 2 -7
0 -5 -5 1 -4 -2 -7 -8 -7 -5 0 -9 3 -8 6 1 3 -4 6 -12 6 -8 0 -13 -5 -12 -11
1 -6 -4 -10 -10 -9 -7 2 -12 -3 -10 -10 1 -6 -3 -11 -9 -10 -6 1 -11 -4 -11
-12 0 -8 3 -13 6 -12 3 1 6 -2 6 -8 0 -5 -8 -9 -17 -9 -9 1 -16 -4 -15 -10 1
-6 -4 -10 -10 -9 -7 2 -12 -3 -10 -10 1 -6 -4 -11 -10 -10 -7 2 -12 -3 -10
-10 1 -6 -4 -11 -10 -10 -7 2 -12 -3 -10 -10 1 -6 -4 -11 -10 -10 -7 2 -12 -3
-10 -10 1 -6 -4 -11 -10 -10 -7 2 -12 -3 -10 -10 1 -6 -4 -11 -10 -10 -7 2
-12 -3 -10 -10 1 -6 -4 -11 -10 -10 -7 2 -12 -3 -10 -10 1 -6 -4 -11 -10 -10
-7 2 -12 -3 -10 -10 1 -6 -4 -11 -10 -10 -7 2 -12 -3 -10 -10 1 -6 -4 -11 -10
-10 -7 2 -12 -3 -10 -10 1 -6 -4 -11 -10 -10 -7 2 -12 -3 -10 -10 1 -6 -4 -11
-10 -10 -7 2 -12 -3 -10 -10 1 -6 -4 -11 -10 -10 -7 2 -12 -3 -10 -10 1 -6 -4
-11 -10 -10 -7 2 -12 -3 -10 -10 1 -6 -4 -11 -10 -10 -7 2 -12 -3 -10 -10 1
-6 -4 -11 -10 -10 -7 2 -12 -3 -10 -10 1 -6 -4 -11 -10 -10 -7 2 -12 -3 -10
-10 1 -6 -4 -11 -10 -10 -7 2 -12 -3 -10 -10 1 -6 -4 -11 -10 -10 -7 2 -12 -3
-10 -10 1 -6 -4 -11 -10 -10 -7 2 -12 -3 -10 -10 1 -6 -4 -11 -10 -10 -7 2
-12 -3 -10 -10 1 -6 -4 -11 -10 -10 -7 2 -12 -3 -10 -10 1 -6 -4 -11 -10 -10
-7 2 -12 -3 -10 -10 1 -6 -4 -11 -10 -10 -7 2 -12 -3 -10 -10 1 -6 -4 -11 -10
-10 -7 2 -12 -3 -10 -10 1 -6 -4 -11 -10 -10 -7 2 -12 -3 -10 -10 1 -6 -4 -11
-10 -10 -7 2 -12 -3 -10 -10 1 -6 -4 -11 -10 -10 -7 2 -12 -3 -10 -10 1 -6 -4
-11 -10 -10 -7 2 -12 -3 -10 -10 1 -6 -4 -11 -10 -10 -7 2 -12 -3 -10 -10 1
-6 -4 -11 -10 -10 -7 2 -12 -3 -10 -10 1 -6 -4 -11 -10 -10 -7 2 -12 -3 -10
-10 1 -6 -4 -11 -10 -10 -7 2 -12 -3 -10 -10 1 -6 -4 -11 -11 -10 -6 2 -11 -3
-10 -10 2 -6 -3 -11 -10 -9 -6 1 -11 -4 -10 -10 2 -7 -3 -12 -10 -10 -6 1 -11
-4 -10 -10 2 -7 -3 -12 -10 -10 -6 1 -11 -4 -10 -10 2 -7 -3 -12 -10 -10 -6 1
-11 -4 -10 -10 2 -7 -3 -12 -10 -10 -6 1 -11 -4 -10 -10 2 -7 -3 -12 -10 -10
-6 1 -11 -4 -10 -10 2 -7 -3 -12 -10 -10 -6 1 -11 -4 -10 -10 2 -7 -3 -12 -10
-10 -6 1 -11 -4 -10 -10 2 -7 -3 -12 -10 -10 -6 1 -11 -4 -10 -10 2 -7 -3 -12
-10 -10 -6 1 -11 -4 -10 -10 2 -7 -3 -12 -10 -10 -6 1 -11 -4 -10 -10 2 -7 -3
-12 -10 -10 -6 1 -11 -4 -10 -10 2 -7 -3 -12 -10 -10 -6 1 -11 -4 -10 -10 2
-7 -3 -12 -10 -10 -6 1 -11 -4 -10 -10 2 -7 -3 -12 -10 -10 -6 1 -11 -4 -10
-10 2 -7 -3 -12 -10 -10 -6 1 -11 -4 -10 -10 2 -7 -3 -12 -10 -10 -6 1 -11 -4
-10 -10 2 -7 -3 -12 -10 -10 -6 1 -11 -4 -10 -10 2 -7 -3 -12 -10 -10 -6 1
-11 -4 -10 -10 2 -7 -3 -12 -10 -10 -6 1 -11 -4 -10 -10 2 -7 -3 -12 -10 -10
-6 1 -11 -4 -10 -10 2 -7 -3 -12 -10 -10 -6 1 -11 -4 -10 -10 2 -7 -3 -12 -10
-10 -6 1 -11 -4 -10 -10 2 -7 -3 -12 -10 -10 -6 1 -11 -4 -10 -10 2 -7 -3 -12
-10 -10 -6 1 -11 -4 -10 -10 2 -7 -3 -12 -10 -10 -6 1 -11 -4 -10 -10 2 -7 -3
-12 -10 -10 -6 1 -11 -4 -10 -10 2 -7 -3 -12 -10 -10 -6 1 -11 -4 -10 -10 2
-7 -3 -12 -10 -10 -6 1 -11 -4 -10 -10 2 -7 -3 -12 -10 -10 -6 1 -11 -4 -10
-10 2 -7 -3 -12 -10 -10 -6 1 -11 -4 -10 -10 2 -7 -3 -12 -10 -10 -6 1 -11 -4
-10 -10 2 -7 -3 -12 -10 -10 -6 1 -11 -4 -10 -10 2 -7 -3 -12 -10 -10 -6 1
-11 -4 -10 -10 2 -7 -3 -12 -10 -10 -6 1 -11 -4 -10 -10 2 -7 -3 -12 -10 -10
-6 1 -11 -4 -10 -10 2 -7 -3 -12 -10 -10 -6 1 -11 -4 -10 -10 2 -7 -3 -12 -10
-10 -6 1 -11 -4 -10 -10 2 -7 -3 -12 -10 -10 -6 1 -11 -4 -10 -10 2 -7 -3 -12
-10 -10 -6 1 -11 -4 -10 -10 2 -7 -3 -12 -10 -10 -6 1 -11 -4 -10 -10 2 -7 -3
-12 -10 -10 -6 1 -11 -4 -10 -10 2 -7 -3 -12 -10 -10 -6 1 -11 -4 -10 -10 2
-7 -3 -12 -10 -10 -6 1 -11 -4 -10 -10 2 -7 -3 -12 -10 -10 -6 1 -11 -4 -10
-10 2 -7 -3 -12 -10 -10 -6 1 -11 -4 -10 -10 2 -7 -3 -12 -10 -10 -6 1 -11 -4
-10 -10 2 -7 -3 -12 -10 -10 -6 1 -11 -4 -10 -10 2 -7 -3 -12 -10 -10 -6 1
-11 -4 -10 -10 2 -7 -3 -12 -10 -10 -6 1 -11 -4 -10 -10 2 -7 -3 -12 -10 -10
-6 1 -11 -4 -10 -10 2 -7 -3 -12 -10 -10 -6 1 -11 -4 -10 -10 2 -7 -3 -12 -10
-10 -6 1 -11 -4 -10 -10 2 -7 -3 -12 -10 -10 -6 1 -11 -4 -10 -10 2 -7 -3 -12
-10 -10 -6 1 -11 -4 -10 -10 2 -7 -3 -12 -10 -10 -6 1 -11 -4 -10 -10 2 -7 -3
-12 -10 -10 -6 1 -11 -4 -10 -10 2 -7 -3 -12 -10 -10 -6 1 -11 -4 -10 -10 2
-7 -3 -12 -10 -10 -6 1 -11 -4 -10 -10 2 -7 -3 -12 -10 -10 -6 1 -11 -4 -10
-10 2 -7 -3 -12 -10 -10 -6 1 -11 -4 -10 -10 2 -7 -3 -12 -10 -10 -6 1 -11 -4
-10 -10 2 -7 -3 -12 -10 -10 -6 1 -11 -4 -10 -10 2 -7 -3 -12 -10 -10 -6 1
-11 -4 -10 -10 2 -7 -3 -12 -10 -10 -6 1 -11 -4 -10 -10 2 -7 -3 -12 -10 -10
-6 1 -11 -4 -10 -10 2 -7 -3 -12 -10 -10 -6 1 -11 -4 -10 -10 2 -7 -3 -12 -10
-10 -6 1 -11 -4 -10 -10 2 -7 -3 -12 -10 -10 -6 1 -11 -4 -10 -10 2 -7 -3 -12
-10 -10 -6 1 -11 -4 -10 -10 2 -7 -3 -12 -10 -10 -6 1 -11 -4 -10 -10 2 -7 -3
-12 -10 -10 -6 1 -11 -4 -10 -10 2 -7 -3 -12 -10 -10 -6 1 -11 -4 -10 -10 2
-7 -3 -12 -10 -10 -6 1 -11 -4 -10 -10 2 -7 -3 -12 -10 -10 -6 1 -11 -4 -10
-10 2 -7 -3 -12 -10 -10 -6 1 -11 -4 -10 -10 2 -7 -3 -12 -10 -10 -6 1 -11 -4
-10 -10 2 -7 -3 -12 -10 -10 -6 1 -11 -4 -10 -10 2 -7 -3 -12 -10 -10 -6 1
-11 -4 -10 -10 2 -7 -3 -12 -10 -10 -6 1 -11 -4 -10 -10 2 -7 -3 -12 -10 -10
-6 1 -11 -4 -10 -10 2 -7 -3 -12 -10 -10 -6 1 -11 -4 -10 -10 2 -7 -3 -12 -10
-10 -6 1 -11 -4 -10 -10 2 -7 -3 -12 -10 -10 -6 1 -11 -4 -10 -10 2 -7 -3 -12
-10 -10 -6 1 -11 -4 -10 -10 2 -7 -3 -12 -10 -10 -6 1 -11 -4 -10 -10 2 -7 -3
-12 -10 -10 -6 1 -11 -4 -10 -10 2 -7 -3 -12 -10 -10 -6 1 -11 -4 -10 -10 2
-7 -3 -12 -10 -10 -6 1 -11 -4 -10 -10 2 -7 -3 -12 -10 -10 -6 1 -11 -4 -10
-10 2 -7 -3 -12 -10 -10 -6 1 -11 -4 -10 -10 2 -7 -3 -12 -10 -10 -6 1 -11 -4
-10 -10 2 -7 -3 -12 -10 -10 -6 1 -11 -4 -10 -10 2 -7 -3 -12 -10 -10 -6 1
-11 -4 -10 -10 2 -7 -3 -12 -10 -10 -6 1 -11 -4 -10 -10 2 -7 -3 -12 -10 -10
-6 1 -11 -4 -10 -10 2 -7 -3 -12 -10 -10 -6 1 -11 -4 -10 -10 2 -7 -3 -12 -10
-10 -6 1 -11 -4 -10 -10 2 -7 -3 -12 -10 -10 -6 1 -11 -4 -10 -10 2 -7 -3 -12
-10 -10 -6 1 -11 -4 -10 -10 2 -7 -3 -12 -10 -10 -6 1 -11 -4 -10 -10 2 -7 -3
-12 -10 -10 -6 1 -11 -4 -10 -10 2 -7 -3 -12 -10 -10 -6 1 -11 -4 -10 -10 2
-7 -3 -12 -10 -10 -6 1 -11 -4 -10 -10 2 -7 -3 -12 -10 -10 -6 1 -11 -4 -10
-10 2 -7 -3 -12 -10 -10 -6 1 -11 -4 -10 -10 2 -7 -3 -12 -10 -10 -6 1 -11 -4
-10 -10 2 -7 -3 -12 -10 -10 -6 1 -11 -4 -10 -10 2 -7 -3 -12 -10 -10 -6 1
-11 -4 -10 -10 2 -7 -3 -12 -10 -10 -6 1 -11 -4 -10 -10 2 -7 -3 -12 -10 -10
-6 1 -11 -4 -10 -10 2 -7 -3 -12 -10 -10 -6 1 -11 -4 -10 -10 2 -7 -3 -12 -10
-10 -6 1 -11 -4 -10 -10 2 -7 -3 -12 -10 -10 -6 1 -11 -4 -10 -10 2 -7 -3 -12
-10 -10 -6 1 -11 -4 -10 -10 2 -7 -3 -12 -10 -10 -6 1 -11 -4 -10 -10 2 -7 -3
-12 -10 -10 -6 1 -11 -4 -10 -10 2 -7 -3 -12 -10 -10 -6 1 -11 -4 -10 -10 2
-7 -3 -12 -10 -10 -6 1 -11 -4 -10 -10 2 -7 -3 -12 -10 -10 -6 1 -11 -4 -10
-10 2 -7 -3 -12 -10 -10 -6 1 -11 -4 -10 -10 2 -7 -3 -12 -10 -10 -6 1 -11 -4
-10 -10 2 -7 -3 -12 -10 -10 -6 1 -11 -4 -10 -10 2 -7 -3 -12 -10 -10 -6 1
-11 -4 -10 -10 2 -7 -3 -12 -10 -10 -6 1 -11 -4 -10 -10 2 -7 -3 -12 -10 -10
-6 1 -11 -4 -10 -10 2 -7 -3 -12 -10 -10 -6 1 -11 -4 -10 -10 2 -7 -3 -12 -10
-10 -6 1 -11 -4 -10 -10 2 -7 -3 -12 -10 -10 -6 1 -11 -4 -10 -10 2 -7 -3 -12
-10 -10 -6 1 -11 -4 -10 -10 2 -7 -3 -12 -10 -10 -6 1 -11 -4 -10 -10 2 -7 -3
-12 -10 -10 -6 1 -11 -4 -10 -10 2 -7 -3 -12 -10 -10 -6 1 -11 -4 -10 -10 2
-7 -3 -12 -10 -10 -6 1 -11 -4 -10 -10 2 -7 -3 -12 -10 -10 -6 1 -11 -4 -10
-10 2 -7 -3 -12 -10 -10 -6 1 -11 -4 -10 -10 2 -7 -3 -12 -10 -10 -6 1 -11 -4
-10 -10 2 -7 -3 -12 -10 -10 -6 1 -11 -4 -10 -10 2 -7 -3 -12 -10 -10 -6 1
-11 -4 -10 -10 2 -7 -3 -12 -10 -10 -6 1 -11 -4 -10 -10 2 -7 -3 -12 -10 -10
-6 1 -11 -4 -10 -10 2 -7 -3 -12 -10 -10 -6 1 -11 -4 -10 -10 2 -7 -3 -12 -10
-10 -6 1 -11 -4 -10 -10 2 -7 -3 -12 -10 -10 -6 1 -11 -4 -10 -10 2 -7 -3 -12
-10 -10 -6 1 -11 -4 -10 -10 2 -7 -3 -12 -10 -10 -6 1 -11 -4 -10 -10 2 -7 -3
-12 -10 -10 -6 1 -11 -4 -10 -10 2 -7 -3 -12 -10 -10 -6 1 -11 -4 -10 -10 2
-7 -3 -12 -10 -10 -6 1 -11 -4 -10 -10 2 -7 -3 -12 -10 -10 -6 1 -11 -4 -10
-10 2 -7 -3 -12 -10 -10 -6 1 -11 -4 -10 -10 2 -7 -3 -12 -10 -10 -6 1 -11 -4
-10 -10 2 -7 -3 -12 -10 -10 -6 1 -11 -4 -10 -10 2 -7 -3 -12 -10 -10 -6 1
-11 -4 -10 -10 2 -7 -3 -12 -10 -10 -6 1 -11 -4 -10 -10 2 -7 -3 -12 -10 -10
-6 1 -11 -4 -10 -10 2 -7 -3 -12 -10 -10 -6 1 -11 -4 -10 -10 2 -7 -3 -12 -10
-10 -6 1 -11 -4 -10 -10 2 -7 -3 -12 -10 -10 -6 1 -11 -4 -10 -10 2 -7 -3 -12
-10 -10 -6 1 -11 -4 -10 -10 2 -7 -3 -12 -10 -10 -6 1 -11 -4 -10 -10 2 -7 -3
-12 -10 -10 -6 1 -11 -4 -10 -10 2 -7 -3 -12 -10 -10 -6 1 -11 -4 -10 -10 2
-7 -3 -12 -10 -10 -6 1 -11 -4 -10 -10 2 -7 -3 -12 -10 -10 -6 1 -11 -4 -10
-10 2 -7 -3 -12 -10 -10 -6 1 -11 -4 -10 -10 2 -7 -3 -12 -10 -10 -6 1 -11 -4
-10 -10 2 -7 -3 -12 -10 -10 -6 1 -11 -4 -10 -10 2 -7 -3 -12 -10 -10 -6 1
-11 -4 -10 -10 2 -7 -3 -12 -10 -10 -6 1 -11 -4 -10 -10 2 -7 -3 -12 -10 -10
-6 1 -11 -4 -10 -10 2 -7 -3 -12 -10 -10 -6 1 -11 -4 -10 -10 2 -7 -3 -12 -10
-10 -6 1 -11 -4 -10 -10 2 -7 -3 -12 -10 -10 -6 1 -11 -4 -10 -10 2 -7 -3 -12
-10 -10 -6 1 -11 -4 -10 -10 2 -7 -3 -12 -10 -10 -6 1 -11 -4 -10 -10 2 -7 -3
-12 -10 -10 -6 1 -11 -4 -10 -10 2 -7 -3 -12 -10 -10 -6 1 -11 -4 -10 -10 2
-7 -3 -12 -10 -10 -6 1 -11 -4 -10 -10 2 -7 -3 -12 -10 -10 -6 1 -11 -4 -10
-10 2 -7 -3 -12 -10 -10 -6 1 -11 -4 -10 -10 2 -7 -3 -12 -10 -10 -6 1 -11 -4
-10 -10 2 -7 -3 -12 -10 -10 -6 1 -11 -4 -10 -10 2 -7 -3 -12 -10 -10 -6 1
-11 -4 -10 -10 2 -7 -3 -12 -10 -10 -6 1 -11 -4 -10 -10 2 -7 -3 -12 -10 -10
-6 1 -11 -4 -10 -10 2 -7 -3 -12 -10 -10 -6 1 -11 -4 -10 -10 2 -7 -2 -12 -8
-11 -6 1 -11 -7 -10 -17 0 -11 -3 -18 -9 -17 -5 1 -9 5 -8 8 1 3 -4 6 -12 6
-8 0 -13 -5 -12 -11 1 -6 -4 -10 -11 -8 -6 1 -11 -4 -10 -10 2 -7 -2 -12 -8
-11 -6 1 -11 -4 -11 -12 0 -8 3 -13 6 -12 3 1 6 -2 6 -8 0 -5 -3 -9 -8 -7 -4
1 -6 -1 -5 -5 2 -5 -1 -8 -7 -8 -5 0 -9 3 -8 6 1 3 -4 6 -12 6 -8 0 -13 -5
-12 -11 1 -6 -4 -10 -11 -8 -6 1 -11 -4 -10 -10 2 -7 -2 -12 -8 -11 -6 1 -11
-4 -11 -12 0 -8 3 -13 6 -12 3 1 6 -2 6 -8 0 -5 -3 -9 -8 -7 -4 1 -6 -1 -5 -5
2 -5 -1 -8 -7 -8 -5 0 -9 3 -8 6 1 3 -4 6 -12 6 -8 0 -13 -5 -12 -11 1 -6 -4
-10 -11 -8 -6 1 -11 -4 -10 -10 2 -7 -2 -12 -8 -11 -6 1 -11 -4 -11 -12 0 -8
3 -13 6 -12 3 1 6 -2 6 -8 0 -5 -3 -9 -8 -7 -4 1 -6 -1 -5 -5 2 -5 -1 -8 -7
-8 -5 0 -9 3 -8 6 1 3 -4 6 -12 6 -8 0 -13 -5 -12 -11 1 -6 -4 -10 -11 -8 -6
1 -11 -4 -10 -10 2 -7 -2 -12 -8 -11 -6 1 -11 -4 -11 -12 0 -8 3 -13 6 -12 3
1 6 -2 6 -8 0 -5 -3 -9 -8 -7 -4 1 -6 -1 -5 -5 2 -5 -1 -8 -7 -8 -5 0 -9 3 -8
6 1 3 -4 6 -12 6 -8 0 -13 -5 -12 -11 1 -6 -4 -10 -11 -8 -6 1 -11 -4 -10 -10
2 -7 -2 -12 -8 -11 -6 1 -11 -4 -11 -12 0 -8 3 -13 6 -12 3 1 6 -2 6 -8 0 -5
-3 -9 -8 -7 -4 1 -6 -1 -5 -5 2 -5 -1 -8 -7 -8 -5 0 -9 3 -8 6 1 3 -4 6 -12 6
-8 0 -13 -5 -12 -11 1 -6 -4 -10 -11 -8 -6 1 -11 -4 -10 -10 2 -7 -2 -12 -8
-11 -6 1 -11 -4 -11 -12 0 -8 3 -13 6 -12 3 1 6 -2 6 -8 0 -5 -3 -9 -8 -7 -4
1 -6 -1 -5 -5 2 -5 -1 -8 -7 -8 -5 0 -9 3 -8 6 1 3 -4 6 -12 6 -8 0 -13 -5
-12 -11 1 -6 -4 -10 -11 -8 -6 1 -11 -4 -10 -10 2 -7 -2 -12 -8 -11 -6 1 -11
-4 -11 -12 0 -8 3 -13 6 -12 3 1 6 -2 6 -8 0 -5 -3 -9 -8 -7 -4 1 -6 -1 -5 -5
2 -5 -1 -8 -7 -8 -5 0 -9 3 -8 6 1 3 -4 6 -12 6 -8 0 -13 -5 -12 -11 1 -6 -4
-10 -11 -8 -8 1 -11 -2 -7 -8 5 -8 11 -8 20 0 9 8 15 8 20 1 4 -8 1379 -11
4471 -11 l4464 0 0 4475 c0 2982 -4 4476 -10 4480 -6 4 -9 1 -8 -7z m-1 -32
c-9 -10 -9 -16 -1 -21 8 -5 8 -11 1 -19 -6 -7 -7 -16 -3 -20 4 -4 0 -6 -8 -4
-8 2 -14 -3 -12 -9 1 -7 -4 -12 -10 -10 -7 1 -12 -4 -10 -10 1 -7 -4 -12 -10
-10 -7 1 -12 -4 -10 -10 1 -7 -4 -12 -10 -10 -7 1 -12 -4 -10 -10 1 -7 -4 -12
-10 -10 -7 1 -12 -4 -10 -10 1 -7 -4 -12 -10 -10 -7 1 -12 -4 -10 -10 1 -7 -4
-12 -10 -10 -7 1 -12 -4 -10 -10 1 -7 -4 -12 -10 -10 -7 1 -12 -4 -10 -10 1
-7 -4 -12 -10 -10 -7 1 -12 -4 -10 -10 1 -7 -4 -12 -10 -10 -7 1 -12 -4 -10
-10 1 -7 -4 -12 -10 -10 -7 1 -12 -4 -10 -10 1 -7 -4 -12 -10 -10 -7 1 -12 -4
-10 -10 1 -7 -4 -12 -10 -10 -7 1 -12 -4 -10 -11 1 -6 -4 -11 -10 -10 -7 2
-12 -3 -10 -10 1 -6 -4 -11 -10 -10 -7 2 -12 -3 -10 -10 1 -6 -4 -11 -10 -10
-7 2 -12 -3 -10 -10 1 -6 -4 -11 -10 -10 -7 2 -12 -3 -10 -10 1 -6 -4 -11 -10
-10 -7 2 -12 -3 -10 -10 1 -6 -4 -11 -10 -10 -7 2 -12 -3 -10 -10 1 -6 -4 -11
-10 -10 -7 2 -12 -3 -10 -10 1 -6 -4 -11 -10 -10 -7 2 -12 -3 -10 -10 1 -6 -4
-11 -10 -10 -7 2 -12 -3 -10 -10 1 -6 -4 -11 -10 -10 -7 2 -12 -3 -10 -10 1
-6 -4 -11 -10 -10 -7 2 -12 -3 -10 -10 1 -6 -4 -11 -10 -10 -7 2 -12 -3 -10
-10 1 -6 -4 -11 -10 -10 -7 2 -12 -3 -10 -10 1 -6 -4 -11 -10 -10 -7 2 -12 -3
-11 -9 2 -7 -3 -12 -10 -10 -6 1 -11 -4 -10 -10 2 -7 -3 -12 -10 -10 -6 1 -11
-4 -10 -10 2 -7 -3 -12 -10 -10 -6 1 -11 -4 -10 -10 2 -7 -3 -12 -10 -10 -6 1
-11 -4 -10 -10 2 -7 -3 -12 -10 -10 -6 1 -11 -4 -10 -10 2 -7 -3 -12 -10 -10
-6 1 -11 -4 -10 -10 2 -7 -3 -12 -10 -10 -6 1 -11 -4 -10 -10 2 -7 -3 -12 -10
-10 -6 1 -11 -4 -10 -10 2 -7 -3 -12 -10 -10 -6 1 -11 -4 -10 -10 2 -7 -3 -12
-10 -10 -6 1 -11 -4 -10 -10 2 -7 -3 -12 -10 -10 -6 1 -11 -4 -10 -10 2 -7 -3
-12 -10 -10 -6 1 -11 -4 -10 -10 2 -7 -3 -12 -10 -10 -6 1 -11 -4 -10 -10 2
-7 -3 -12 -10 -10 -6 1 -11 -4 -10 -10 2 -7 -3 -12 -10 -10 -6 1 -11 -4 -10
-10 2 -7 -3 -12 -10 -10 -6 1 -11 -4 -10 -10 2 -7 -3 -12 -10 -10 -6 1 -11 -4
-10 -10 2 -7 -3 -12 -10 -10 -6 1 -11 -4 -10 -10 2 -7 -3 -12 -10 -10 -6 1
-11 -4 -10 -10 2 -7 -3 -12 -10 -10 -6 1 -11 -4 -10 -10 2 -7 -3 -12 -10 -10
-6 1 -11 -4 -10 -10 2 -7 -3 -12 -10 -10 -6 1 -11 -4 -10 -10 2 -7 -3 -12 -10
-10 -6 1 -11 -4 -10 -10 2 -7 -3 -12 -10 -10 -6 1 -11 -4 -10 -10 2 -7 -3 -12
-10 -10 -6 1 -11 -4 -10 -10 2 -7 -3 -12 -10 -10 -6 1 -11 -4 -10 -10 2 -7 -3
-12 -10 -10 -6 1 -11 -4 -10 -10 2 -7 -3 -12 -10 -10 -6 1 -11 -4 -10 -10 2
-7 -3 -12 -10 -10 -6 1 -11 -4 -9 -11 1 -6 -4 -11 -10 -10 -7 2 -12 -3 -10
-10 1 -6 -4 -11 -10 -10 -7 2 -12 -3 -10 -10 1 -6 -4 -11 -10 -10 -7 2 -12 -3
-10 -10 1 -6 -4 -11 -10 -10 -7 2 -12 -3 -10 -10 1 -6 -4 -11 -10 -10 -7 2
-12 -3 -10 -10 1 -6 -4 -11 -10 -10 -7 2 -12 -3 -10 -10 1 -6 -4 -11 -10 -10
-7 2 -12 -3 -10 -10 1 -6 -4 -11 -10 -10 -7 2 -12 -3 -10 -10 1 -6 -4 -11 -10
-10 -7 2 -12 -3 -10 -10 1 -6 -4 -11 -10 -10 -7 2 -12 -3 -10 -10 1 -6 -4 -11
-10 -10 -7 2 -12 -3 -10 -10 1 -6 -4 -11 -10 -10 -7 2 -12 -3 -10 -10 1 -6 -4
-11 -10 -10 -7 2 -12 -3 -10 -10 1 -6 -4 -11 -10 -10 -7 2 -12 -3 -10 -10 1
-6 -4 -11 -10 -10 -7 2 -12 -3 -10 -10 1 -6 -4 -11 -10 -10 -7 2 -12 -3 -10
-10 1 -6 -4 -11 -10 -10 -7 2 -12 -3 -10 -10 1 -6 -4 -11 -10 -10 -7 2 -12 -3
-10 -10 1 -6 -4 -11 -10 -10 -7 2 -12 -3 -10 -10 1 -6 -4 -11 -10 -10 -7 2
-12 -3 -10 -10 1 -6 -4 -11 -10 -10 -7 2 -12 -3 -10 -10 1 -6 -4 -11 -10 -10
-7 2 -12 -3 -10 -10 1 -6 -4 -11 -10 -10 -7 2 -12 -3 -10 -10 1 -6 -4 -11 -10
-10 -7 2 -12 -3 -10 -10 1 -6 -4 -11 -10 -10 -7 2 -12 -3 -10 -10 1 -6 -4 -11
-10 -10 -7 2 -12 -3 -10 -10 1 -6 -4 -11 -10 -10 -7 2 -12 -3 -10 -10 1 -6 -4
-11 -10 -10 -7 2 -12 -3 -10 -10 1 -6 -4 -11 -10 -10 -7 2 -12 -3 -10 -10 1
-6 -4 -11 -10 -10 -7 2 -12 -3 -10 -10 1 -6 -4 -11 -10 -10 -7 2 -12 -3 -10
-10 1 -6 -4 -11 -10 -10 -7 2 -12 -3 -10 -10 1 -6 -4 -11 -10 -10 -7 2 -12 -3
-10 -10 1 -6 -4 -11 -10 -10 -7 2 -12 -3 -10 -10 1 -6 -4 -11 -10 -10 -7 2
-12 -3 -10 -10 1 -6 -4 -11 -10 -10 -7 2 -12 -3 -10 -10 1 -6 -4 -11 -10 -10
-7 2 -12 -3 -10 -10 1 -6 -4 -11 -10 -10 -7 2 -12 -3 -10 -10 1 -6 -4 -11 -10
-10 -7 2 -12 -3 -10 -10 1 -6 -4 -11 -10 -10 -7 2 -12 -3 -10 -10 1 -6 -4 -11
-10 -10 -7 2 -12 -3 -10 -10 1 -6 -4 -11 -10 -10 -7 2 -12 -3 -10 -10 1 -6 -4
-11 -10 -10 -7 2 -12 -3 -10 -10 1 -6 -4 -11 -10 -10 -7 2 -12 -3 -10 -10 1
-6 -4 -11 -10 -10 -7 2 -12 -3 -10 -10 1 -6 -4 -11 -10 -10 -7 2 -12 -3 -10
-10 1 -6 -4 -11 -10 -10 -7 2 -12 -3 -10 -10 1 -6 -4 -11 -10 -10 -7 2 -12 -3
-10 -10 1 -6 -4 -11 -10 -10 -7 2 -12 -3 -10 -10 1 -6 -4 -11 -10 -10 -7 2
-12 -3 -10 -10 1 -6 -4 -11 -10 -10 -7 2 -12 -3 -10 -10 1 -6 -4 -11 -10 -10
-7 2 -12 -3 -10 -10 1 -6 -4 -11 -10 -10 -7 2 -12 -3 -10 -10 1 -6 -4 -11 -10
-10 -7 2 -12 -3 -10 -10 1 -6 -4 -11 -10 -10 -7 2 -12 -3 -10 -10 1 -6 -4 -11
-10 -10 -7 2 -12 -3 -10 -10 1 -6 -4 -11 -10 -10 -7 2 -12 -3 -11 -9 2 -7 -3
-12 -10 -10 -6 1 -11 -4 -10 -10 2 -7 -3 -12 -10 -10 -6 1 -11 -4 -10 -10 2
-7 -3 -12 -10 -10 -6 1 -11 -4 -10 -10 2 -7 -3 -12 -10 -10 -6 1 -11 -4 -10
-10 2 -7 -3 -12 -10 -10 -6 1 -11 -4 -10 -10 2 -7 -3 -12 -10 -10 -6 1 -11 -4
-10 -10 2 -7 -3 -12 -10 -10 -6 1 -11 -4 -10 -10 2 -7 -3 -12 -10 -10 -6 1
-11 -4 -10 -10 2 -7 -3 -12 -10 -10 -6 1 -11 -4 -10 -10 2 -7 -3 -12 -10 -10
-6 1 -11 -4 -10 -10 2 -7 -3 -12 -10 -10 -6 1 -11 -4 -10 -10 2 -7 -3 -12 -10
-10 -6 1 -11 -4 -10 -10 2 -7 -3 -12 -10 -10 -6 1 -11 -4 -10 -10 2 -7 -3 -12
-10 -10 -6 1 -11 -4 -10 -10 2 -7 -3 -12 -10 -10 -6 1 -11 -4 -10 -10 2 -7 -3
-12 -10 -10 -6 1 -11 -4 -10 -10 2 -7 -3 -12 -10 -10 -6 1 -11 -4 -10 -10 2
-7 -3 -12 -10 -10 -6 1 -11 -4 -10 -10 2 -7 -3 -12 -10 -10 -6 1 -11 -4 -10
-10 2 -7 -3 -12 -10 -10 -6 1 -11 -4 -10 -10 2 -7 -3 -12 -10 -10 -6 1 -11 -4
-10 -10 2 -7 -3 -12 -10 -10 -6 1 -11 -4 -10 -10 2 -7 -3 -12 -10 -10 -6 1
-11 -4 -10 -10 2 -7 -3 -12 -10 -10 -6 1 -11 -4 -10 -10 2 -7 -3 -12 -10 -10
-6 1 -11 -4 -10 -10 2 -7 -3 -12 -10 -10 -6 1 -11 -4 -10 -10 2 -7 -3 -12 -10
-10 -6 1 -11 -4 -10 -10 2 -7 -3 -12 -10 -10 -6 1 -11 -4 -10 -10 2 -7 -3 -12
-10 -10 -6 1 -11 -4 -10 -10 2 -7 -3 -12 -10 -10 -6 1 -11 -4 -10 -10 2 -7 -3
-12 -10 -10 -6 1 -11 -4 -10 -10 2 -7 -3 -12 -10 -10 -6 1 -11 -4 -10 -10 2
-7 -3 -12 -10 -10 -6 1 -11 -4 -10 -10 2 -7 -3 -12 -10 -10 -6 1 -11 -4 -10
-10 2 -7 -3 -12 -10 -10 -6 1 -11 -4 -10 -10 2 -7 -3 -12 -10 -10 -6 1 -11 -4
-10 -10 2 -7 -3 -12 -10 -10 -6 1 -11 -4 -10 -10 2 -7 -3 -12 -10 -10 -6 1
-11 -4 -10 -10 2 -7 -3 -12 -10 -10 -6 1 -11 -4 -10 -10 2 -7 -3 -12 -10 -10
-6 1 -11 -4 -10 -10 2 -7 -3 -12 -10 -10 -6 1 -11 -4 -10 -10 2 -7 -3 -12 -10
-10 -6 1 -11 -4 -10 -10 2 -7 -3 -12 -10 -10 -6 1 -11 -4 -10 -10 2 -7 -3 -12
-10 -10 -6 1 -11 -4 -10 -10 2 -7 -3 -12 -10 -10 -7 1 -12 -7 -11 -19 1 -11
-4 -21 -11 -21 -7 0 -12 7 -11 16 1 9 -3 16 -9 16 -5 0 -9 -8 -9 -17 1 -9 -1
-16 -5 -15 -3 1 -6 -3 -6 -8 0 -6 3 -9 6 -8 3 1 6 -4 6 -11 0 -7 -6 -13 -13
-13 -7 0 -12 3 -11 6 1 3 -3 6 -8 6 -6 0 -9 -3 -8 -7 2 -5 0 -7 -5 -5 -4 1 -7
-2 -7 -8 0 -5 3 -9 6 -8 3 1 6 -4 6 -11 0 -7 -6 -13 -13 -13 -7 0 -12 3 -11 6
1 3 -2 6 -8 6 -5 0 -9 -3 -8 -7 2 -5 0 -7 -5 -5 -4 1 -7 -2 -7 -8 0 -5 3 -9 6
-8 3 1 6 -4 6 -11 0 -7 -6 -13 -13 -13 -7 0 -12 3 -11 6 1 3 -3 6 -8 6 -6 0
-9 -3 -8 -7 2 -5 0 -7 -5 -5 -4 1 -7 -3 -7 -8 0 -6 3 -9 6 -8 3 1 6 -4 6 -11
0 -7 -6 -13 -13 -13 -7 0 -12 3 -11 6 1 3 -3 6 -8 6 -5 0 -9 -3 -8 -7 2 -5 0
-7 -5 -5 -4 1 -7 -3 -7 -8 0 -6 3 -9 6 -8 3 1 6 -4 6 -11 0 -7 -6 -13 -13 -13
-7 0 -12 3 -11 6 1 3 -2 6 -8 6 -5 0 -9 -3 -8 -7 2 -5 0 -7 -5 -5 -4 1 -7 -2
-7 -8 0 -5 3 -9 6 -8 3 1 6 -4 6 -11 0 -7 -6 -13 -13 -13 -7 0 -12 3 -11 6 1
3 -3 6 -8 6 -5 0 -9 -3 -8 -7 2 -5 0 -7 -5 -5 -4 1 -7 -3 -7 -8 0 -6 3 -9 6
-8 3 1 6 -4 6 -11 0 -7 -6 -13 -13 -13 -7 0 -12 3 -11 6 1 3 -3 6 -8 6 -5 0
-9 -3 -8 -7 2 -5 0 -7 -5 -5 -4 1 -7 -2 -7 -8 0 -5 3 -9 6 -8 3 1 6 -4 6 -11
0 -7 -6 -13 -13 -13 -7 0 -12 3 -11 6 1 3 -3 6 -8 6 -5 0 -9 -3 -8 -7 2 -5 0
-7 -5 -5 -4 1 -7 -2 -7 -8 0 -5 3 -9 6 -8 3 1 6 -4 6 -11 0 -7 -6 -13 -13 -13
-7 0 -12 3 -11 6 1 3 -2 6 -8 6 -5 0 -9 -3 -8 -7 2 -5 0 -7 -5 -5 -4 1 -7 -2
-7 -8 0 -5 3 -9 6 -8 3 1 6 -4 6 -11 0 -7 -6 -13 -13 -13 -7 0 -12 3 -11 6 1
3 -2 6 -8 6 -5 0 -9 -3 -8 -7 2 -5 0 -7 -5 -5 -4 1 -7 -3 -7 -8 0 -6 3 -9 6
-8 3 1 6 -4 6 -11 0 -7 -6 -13 -13 -13 -7 0 -12 3 -11 6 1 3 -2 6 -8 6 -5 0
-9 -3 -8 -7 2 -5 0 -7 -5 -5 -4 1 -7 -2 -7 -8 0 -5 3 -9 6 -8 3 1 6 -4 6 -11
0 -7 -6 -13 -13 -13 -7 0 -12 3 -11 6 1 3 -3 6 -8 6 -6 0 -9 -3 -8 -7 2 -5 0
-7 -5 -5 -4 1 -7 -3 -7 -8 0 -6 3 -9 6 -8 3 1 6 -4 6 -11 0 -7 -6 -13 -13 -13
-7 0 -12 3 -11 6 1 3 -2 6 -8 6 -5 0 -9 -3 -8 -7 2 -5 0 -7 -5 -5 -4 1 -7 -2
-7 -8 0 -5 3 -9 6 -8 3 1 6 -4 6 -11 0 -7 -6 -13 -13 -13 -7 0 -12 3 -11 6 1
3 -3 6 -8 6 -6 0 -9 -3 -8 -7 2 -5 0 -7 -5 -5 -4 1 -7 -2 -7 -8 0 -5 3 -9 6
-8 3 1 6 -4 6 -11 0 -7 -6 -13 -13 -13 -7 0 -12 3 -11 6 1 3 -3 6 -8 6 -5 0
-9 -3 -8 -7 2 -5 0 -7 -5 -5 -4 1 -7 -2 -7 -8 0 -5 3 -9 6 -8 3 1 6 -4 6 -11
0 -7 -6 -13 -13 -13 -7 0 -12 3 -11 6 1 3 -2 6 -8 6 -5 0 -9 -3 -8 -7 2 -5 0
-7 -5 -5 -4 1 -7 -2 -7 -8 0 -5 3 -9 6 -8 3 1 6 -4 6 -11 0 -7 -10 -13 -21
-12 -12 1 -20 -4 -19 -11 2 -7 -3 -12 -10 -10 -6 1 -11 -4 -10 -10 2 -7 -3
-12 -10 -10 -6 1 -11 -4 -10 -10 2 -7 -3 -12 -10 -10 -6 1 -11 -4 -10 -10 2
-7 -3 -12 -10 -10 -6 1 -11 -4 -10 -10 2 -7 -3 -12 -10 -10 -6 1 -11 -4 -10
-10 2 -7 -3 -12 -10 -10 -6 1 -11 -4 -10 -10 2 -7 -3 -12 -10 -10 -6 1 -11 -4
-10 -10 2 -7 -3 -12 -10 -10 -6 1 -11 -4 -10 -10 2 -7 -3 -12 -10 -10 -6 1
-11 -4 -10 -10 2 -7 -3 -12 -10 -10 -6 1 -11 -4 -10 -10 2 -7 -3 -12 -10 -10
-6 1 -11 -4 -10 -10 2 -7 -3 -12 -10 -10 -6 1 -11 -4 -10 -10 2 -7 -3 -12 -10
-10 -6 1 -11 -4 -10 -10 2 -7 -3 -12 -10 -10 -6 1 -11 -4 -10 -10 2 -7 -3 -12
-10 -10 -6 1 -11 -4 -10 -10 2 -7 -3 -12 -10 -10 -6 1 -11 -4 -10 -10 2 -7 -3
-12 -10 -10 -6 1 -11 -4 -10 -10 2 -7 -3 -12 -10 -10 -6 1 -11 -4 -10 -10 2
-7 -3 -12 -10 -10 -6 1 -11 -4 -10 -10 2 -7 -3 -12 -10 -10 -6 1 -11 -4 -10
-10 2 -7 -3 -12 -10 -10 -6 1 -11 -4 -10 -10 2 -7 -3 -12 -10 -10 -6 1 -11 -4
-10 -10 2 -7 -3 -12 -10 -10 -6 1 -11 -4 -10 -10 2 -7 -3 -12 -10 -10 -6 1
-11 -4 -10 -10 2 -7 -3 -12 -10 -10 -6 1 -11 -4 -10 -10 2 -7 -3 -12 -10 -10
-6 1 -11 -4 -10 -10 2 -7 -3 -12 -10 -10 -6 1 -11 -4 -10 -10 2 -7 -3 -12 -10
-10 -6 1 -11 -4 -10 -10 2 -7 -3 -12 -10 -10 -6 1 -11 -4 -10 -10 2 -7 -3 -12
-10 -10 -6 1 -11 -4 -10 -10 2 -7 -3 -12 -10 -10 -6 1 -11 -4 -10 -10 2 -7 -3
-12 -10 -10 -6 1 -11 -4 -10 -10 2 -7 -3 -12 -10 -10 -6 1 -11 -4 -10 -11 2
-6 -3 -11 -10 -10 -6 2 -11 -3 -9 -10 1 -6 -4 -11 -10 -10 -7 2 -12 -3 -10
-10 1 -6 -4 -11 -10 -10 -7 2 -12 -3 -10 -10 1 -6 -4 -11 -10 -10 -7 2 -12 -3
-10 -10 1 -6 -4 -11 -10 -10 -7 2 -12 -3 -10 -10 1 -6 -4 -11 -10 -10 -7 2
-12 -3 -10 -10 1 -6 -4 -11 -10 -10 -7 2 -12 -3 -10 -10 1 -6 -4 -11 -10 -10
-7 2 -12 -3 -10 -10 1 -6 -4 -11 -10 -10 -7 2 -12 -3 -10 -10 1 -6 -4 -11 -10
-10 -7 2 -12 -3 -10 -10 1 -6 -4 -11 -10 -10 -7 2 -12 -3 -10 -10 1 -6 -4 -11
-10 -10 -7 2 -12 -3 -10 -10 1 -6 -4 -11 -10 -10 -7 2 -12 -3 -10 -10 1 -6 -4
-11 -10 -10 -7 2 -12 -3 -10 -10 1 -6 -4 -11 -10 -10 -7 2 -12 -3 -10 -10 1
-6 -4 -11 -10 -10 -7 2 -12 -3 -10 -10 1 -6 -4 -11 -10 -10 -7 2 -12 -3 -10
-10 1 -6 -4 -11 -10 -10 -7 2 -12 -3 -10 -10 1 -6 -4 -11 -10 -10 -7 2 -12 -3
-10 -10 1 -6 -4 -11 -10 -10 -7 2 -12 -3 -10 -10 1 -6 -4 -11 -10 -10 -7 2
-12 -3 -10 -10 1 -6 -4 -11 -10 -10 -7 2 -12 -3 -10 -10 1 -6 -4 -11 -10 -10
-7 2 -12 -3 -10 -10 1 -6 -4 -11 -10 -10 -7 2 -12 -3 -10 -10 1 -6 -4 -11 -10
-10 -7 2 -12 -3 -10 -10 1 -6 -4 -11 -10 -10 -7 2 -12 -3 -10 -10 1 -6 -4 -11
-10 -10 -7 2 -12 -3 -10 -10 1 -6 -4 -11 -10 -10 -7 2 -12 -3 -10 -10 1 -6 -4
-11 -10 -10 -7 2 -12 -3 -10 -10 1 -6 -4 -11 -10 -10 -7 2 -12 -3 -10 -10 1
-6 -4 -11 -10 -10 -7 2 -12 -3 -10 -10 1 -6 -4 -11 -10 -10 -7 2 -12 -3 -10
-10 1 -6 -4 -11 -10 -10 -7 2 -12 -3 -10 -10 1 -6 -4 -11 -10 -10 -7 2 -12 -3
-10 -10 1 -6 -4 -11 -10 -10 -7 2 -12 -3 -10 -10 1 -6 -4 -11 -10 -10 -7 2
-12 -3 -10 -10 1 -6 -4 -11 -10 -10 -7 2 -12 -3 -10 -10 1 -6 -4 -11 -10 -10
-7 2 -12 -3 -10 -10 1 -6 -4 -11 -10 -10 -7 2 -12 -3 -10 -10 1 -6 -4 -11 -10
-10 -7 2 -12 -3 -10 -10 1 -6 -4 -11 -10 -10 -7 2 -12 -3 -10 -10 1 -6 -4 -11
-10 -10 -7 2 -12 -3 -10 -10 1 -6 -4 -11 -10 -10 -7 2 -12 -3 -10 -10 1 -6 -4
-11 -10 -10 -7 2 -12 -3 -10 -10 1 -6 -4 -11 -10 -10 -7 2 -12 -3 -10 -10 1
-6 -4 -11 -10 -10 -7 2 -12 -3 -10 -10 1 -6 -4 -11 -10 -10 -7 2 -12 -3 -10
-10 1 -6 -4 -11 -10 -10 -7 2 -12 -3 -10 -10 1 -6 -4 -11 -10 -10 -7 2 -12 -3
-10 -10 1 -6 -4 -11 -10 -10 -7 2 -12 -3 -10 -10 1 -6 -4 -11 -10 -10 -7 2
-12 -3 -10 -10 1 -6 -4 -11 -10 -10 -7 2 -12 -3 -10 -10 1 -6 -4 -11 -10 -10
-7 2 -12 -3 -10 -10 1 -6 -4 -11 -10 -10 -7 2 -12 -3 -10 -10 1 -6 -4 -11 -10
-10 -7 2 -12 -3 -10 -10 1 -6 -4 -11 -10 -10 -7 2 -12 -3 -10 -10 1 -6 -4 -11
-10 -10 -7 2 -12 -3 -10 -10 1 -6 -4 -11 -10 -10 -7 2 -12 -3 -10 -10 1 -6 -4
-11 -10 -10 -7 2 -12 -3 -10 -10 1 -6 -4 -11 -10 -10 -7 2 -12 -3 -10 -10 1
-6 -4 -11 -10 -10 -7 2 -12 -3 -10 -10 1 -6 -4 -11 -10 -10 -7 2 -12 -3 -10
-10 1 -6 -4 -11 -10 -10 -7 2 -12 -3 -10 -10 1 -6 -4 -11 -10 -10 -7 2 -12 -3
-10 -10 1 -6 -4 -11 -10 -10 -7 2 -12 -3 -10 -10 1 -6 -4 -11 -10 -10 -7 2
-12 -3 -10 -10 1 -6 -4 -11 -10 -10 -7 2 -12 -3 -10 -10 1 -6 -4 -11 -10 -10
-7 2 -12 -3 -10 -10 1 -6 -4 -11 -10 -10 -7 2 -12 -3 -10 -10 1 -6 -4 -11 -10
-10 -7 2 -12 -3 -10 -10 1 -6 -4 -11 -10 -10 -7 2 -12 -3 -10 -10 1 -6 -4 -11
-10 -10 -7 2 -12 -3 -10 -10 1 -6 -4 -11 -10 -10 -7 2 -12 -3 -10 -10 1 -6 -4
-11 -10 -10 -7 2 -12 -3 -10 -10 1 -6 -4 -11 -10 -10 -7 2 -12 -3 -10 -10 1
-6 -4 -11 -10 -10 -7 2 -12 -3 -10 -10 1 -6 -4 -11 -10 -10 -7 2 -12 -3 -10
-10 1 -6 -4 -11 -10 -10 -7 2 -12 -3 -10 -10 1 -6 -4 -11 -10 -10 -7 2 -12 -3
-10 -10 1 -6 -4 -11 -10 -10 -7 2 -12 -3 -10 -10 1 -6 -4 -11 -10 -10 -7 2
-12 -3 -10 -10 1 -6 -4 -11 -10 -10 -7 2 -12 -3 -10 -10 1 -6 -4 -11 -10 -10
-7 2 -12 -3 -10 -10 1 -6 -4 -11 -10 -10 -7 2 -12 -3 -10 -10 1 -6 -4 -11 -10
-10 -7 2 -12 -3 -10 -10 1 -6 -4 -11 -10 -10 -7 2 -12 -3 -10 -10 1 -6 -4 -11
-10 -10 -7 2 -12 -3 -10 -10 1 -6 -4 -11 -10 -10 -7 2 -12 -3 -10 -10 1 -6 -4
-11 -10 -10 -7 2 -12 -3 -10 -10 1 -6 -4 -11 -10 -10 -7 2 -12 -3 -10 -10 1
-6 -4 -11 -10 -10 -7 2 -12 -3 -10 -10 1 -6 -4 -11 -10 -10 -7 2 -12 -3 -10
-10 1 -6 -4 -11 -10 -10 -7 2 -12 -3 -10 -10 1 -6 -4 -11 -10 -10 -7 2 -12 -3
-10 -10 1 -6 -4 -11 -10 -10 -7 2 -12 -3 -10 -10 1 -6 -4 -11 -10 -10 -7 2
-12 -3 -10 -10 1 -6 -4 -11 -10 -10 -7 2 -12 -3 -10 -10 1 -6 -4 -11 -10 -10
-7 2 -12 -3 -10 -10 1 -6 -4 -11 -10 -10 -7 2 -12 -3 -10 -10 1 -6 -4 -11 -10
-10 -7 2 -12 -3 -10 -10 1 -6 -4 -11 -10 -10 -7 2 -12 -3 -10 -10 1 -6 -4 -11
-10 -10 -7 2 -12 -3 -10 -10 1 -6 -4 -11 -10 -10 -7 2 -12 -3 -10 -10 1 -6 -4
-11 -10 -10 -7 2 -12 -3 -10 -10 1 -6 -4 -11 -10 -10 -7 2 -12 -3 -10 -10 1
-6 -4 -11 -10 -10 -7 2 -12 -3 -10 -10 1 -6 -4 -11 -10 -10 -7 2 -12 -3 -10
-10 1 -6 -4 -11 -10 -10 -7 2 -12 -3 -10 -10 1 -6 -4 -11 -10 -10 -7 2 -12 -3
-10 -10 1 -6 -4 -11 -10 -10 -7 2 -12 -3 -10 -10 1 -6 -4 -11 -10 -10 -7 2
-12 -3 -10 -10 1 -6 -4 -11 -10 -10 -7 2 -12 -3 -10 -10 1 -6 -4 -11 -10 -10
-7 2 -12 -3 -10 -10 1 -6 -4 -11 -10 -10 -7 2 -12 -3 -10 -10 1 -6 -4 -11 -10
-10 -7 2 -12 -3 -10 -10 1 -6 -4 -11 -10 -10 -7 2 -12 -3 -10 -10 1 -6 -4 -11
-10 -10 -7 2 -12 -3 -10 -10 1 -6 -4 -11 -10 -10 -7 2 -12 -3 -10 -10 1 -6 -4
-11 -10 -10 -7 2 -12 -3 -10 -10 1 -6 -4 -11 -10 -10 -7 2 -12 -3 -10 -10 1
-6 -4 -11 -10 -10 -7 2 -12 -3 -10 -10 1 -6 -4 -11 -10 -10 -7 2 -12 -3 -10
-10 1 -6 -4 -11 -10 -10 -7 2 -12 -3 -10 -10 1 -6 -4 -11 -10 -10 -7 2 -12 -3
-10 -10 1 -6 -4 -11 -10 -10 -7 2 -12 -3 -10 -10 1 -6 -4 -11 -10 -10 -7 2
-12 -3 -10 -10 1 -6 -4 -11 -10 -10 -7 2 -12 -3 -10 -10 1 -6 -4 -11 -10 -10
-7 2 -12 -3 -10 -10 1 -6 -4 -11 -10 -10 -7 2 -12 -3 -10 -10 1 -6 -4 -11 -10
-10 -7 2 -12 -3 -10 -10 1 -6 -4 -11 -10 -10 -7 2 -12 -3 -10 -10 1 -6 -4 -11
-10 -10 -7 2 -12 -3 -10 -10 1 -6 -4 -11 -10 -10 -7 2 -12 -3 -10 -10 1 -6 -4
-11 -10 -10 -7 2 -12 -3 -10 -10 1 -6 -4 -11 -10 -10 -7 2 -12 -3 -10 -10 1
-6 -4 -11 -10 -10 -7 2 -12 -3 -10 -10 1 -6 -4 -11 -10 -10 -7 2 -12 -3 -10
-10 1 -6 -4 -11 -10 -10 -7 2 -12 -3 -10 -10 1 -6 -4 -11 -10 -10 -7 2 -12 -3
-10 -10 1 -6 -4 -11 -10 -10 -7 2 -12 -3 -10 -10 1 -6 -4 -11 -10 -10 -7 2
-12 -3 -10 -10 1 -6 -4 -11 -10 -10 -7 2 -12 -3 -10 -10 1 -6 -4 -11 -10 -10
-7 2 -12 -3 -10 -10 1 -6 -4 -11 -10 -10 -7 2 -12 -3 -10 -10 1 -6 -4 -11 -10
-10 -7 2 -12 -3 -10 -10 1 -6 -4 -11 -10 -10 -7 2 -12 -3 -10 -10 1 -6 -4 -11
-10 -10 -7 2 -12 -3 -10 -10 1 -6 -4 -11 -10 -10 -7 2 -12 -3 -10 -10 1 -6 -4
-11 -10 -10 -7 2 -12 -3 -10 -10 1 -6 -4 -11 -10 -10 -7 2 -12 -3 -10 -10 1
-6 -4 -11 -10 -10 -7 2 -12 -3 -10 -10 1 -6 -4 -11 -10 -10 -7 2 -12 -3 -10
-10 1 -6 -4 -11 -10 -10 -7 2 -12 -3 -10 -10 1 -6 -4 -11 -10 -10 -7 2 -12 -3
-10 -10 1 -6 -4 -11 -10 -10 -7 2 -12 -3 -10 -10 1 -6 -4 -11 -10 -10 -7 2
-12 -3 -10 -10 1 -6 -4 -11 -10 -10 -7 2 -12 -3 -10 -10 1 -6 -4 -11 -10 -10
-7 2 -12 -3 -10 -10 1 -6 -4 -11 -10 -10 -7 2 -12 -3 -10 -10 1 -6 -4 -11 -10
-10 -7 2 -12 -3 -10 -10 1 -6 -4 -11 -10 -10 -7 2 -12 -3 -10 -10 1 -6 -4 -11
-10 -10 -7 2 -12 -3 -10 -10 1 -6 -4 -11 -10 -10 -7 2 -12 -3 -10 -10 1 -6 -4
-11 -10 -10 -7 2 -12 -3 -10 -10 1 -6 -4 -11 -10 -10 -7 2 -12 -3 -10 -10 1
-6 -4 -11 -10 -10 -7 2 -12 -3 -10 -10 1 -6 -4 -11 -10 -10 -7 2 -12 -3 -10
-10 1 -6 -4 -11 -10 -10 -7 2 -12 -3 -10 -10 1 -6 -4 -11 -10 -10 -7 2 -12 -3
-10 -10 1 -6 -4 -11 -10 -10 -7 2 -12 -3 -10 -10 1 -6 -4 -11 -10 -10 -7 2
-12 -3 -10 -10 1 -6 -4 -11 -10 -10 -7 2 -12 -3 -10 -10 1 -6 -4 -11 -10 -10
-7 2 -12 -3 -10 -10 1 -6 -4 -11 -10 -10 -7 2 -12 -3 -10 -10 1 -6 -4 -11 -10
-10 -7 2 -12 -3 -10 -10 1 -6 -4 -11 -10 -10 -7 2 -12 -3 -10 -10 1 -6 -4 -11
-10 -10 -7 2 -12 -3 -10 -10 1 -6 -4 -11 -10 -10 -7 2 -12 -3 -10 -10 1 -6 -4
-11 -10 -10 -7 2 -12 -3 -10 -10 1 -6 -4 -11 -10 -10 -7 2 -12 -3 -10 -10 1
-6 -4 -11 -10 -10 -7 2 -12 -3 -10 -10 1 -6 -4 -11 -10 -10 -7 2 -12 -3 -10
-10 1 -6 -4 -11 -10 -10 -7 2 -12 -3 -10 -10 1 -6 -4 -11 -10 -10 -7 2 -12 -3
-10 -10 1 -6 -4 -11 -10 -10 -7 2 -12 -3 -10 -10 1 -6 -4 -11 -10 -10 -8 2
-13 -6 -12 -18 1 -11 -4 -21 -11 -21 -7 0 -12 8 -11 18 1 10 -3 19 -9 19 -5 0
-9 -9 -9 -20 1 -10 -1 -18 -5 -17 -3 1 -6 -2 -6 -8 0 -5 3 -9 6 -8 3 1 6 -4 6
-11 0 -7 -6 -13 -13 -13 -7 0 -12 3 -11 6 1 3 -2 6 -8 6 -5 0 -9 -3 -7 -8 1
-4 -1 -6 -5 -5 -5 2 -8 -1 -8 -7 0 -5 3 -9 6 -8 3 1 6 -4 6 -11 0 -7 -6 -13
-13 -13 -7 0 -12 3 -11 6 1 3 -2 6 -8 6 -5 0 -9 -3 -7 -8 1 -4 -1 -6 -5 -5 -5
2 -8 -1 -8 -7 0 -5 3 -9 6 -8 3 1 6 -4 6 -11 0 -7 -6 -13 -13 -13 -7 0 -12 3
-11 6 1 3 -2 6 -8 6 -5 0 -9 -3 -7 -8 1 -4 -1 -6 -5 -5 -5 2 -8 -1 -8 -7 0 -5
3 -9 6 -8 3 1 6 -4 6 -11 0 -7 -6 -13 -13 -13 -7 0 -12 3 -11 6 1 3 -2 6 -8 6
-5 0 -9 -3 -7 -8 1 -4 -1 -6 -5 -5 -5 2 -8 -1 -8 -7 0 -5 3 -9 6 -8 3 1 6 -4
6 -11 0 -7 -6 -13 -13 -13 -7 0 -12 3 -11 6 1 3 -2 6 -8 6 -5 0 -9 -3 -7 -8 1
-4 -1 -6 -5 -5 -5 2 -8 -1 -8 -7 0 -5 3 -9 6 -8 3 1 6 -4 6 -11 0 -7 -6 -13
-13 -13 -7 0 -12 3 -11 6 1 3 -2 6 -8 6 -5 0 -9 -3 -7 -8 1 -4 -1 -6 -5 -5 -5
2 -8 -1 -8 -7 0 -5 3 -9 6 -8 3 1 6 -4 6 -11 0 -7 -6 -13 -13 -13 -7 0 -12 3
-11 6 1 3 -2 6 -8 6 -5 0 -9 -3 -7 -8 1 -4 -1 -6 -5 -5 -5 2 -8 -1 -8 -7 0 -5
3 -9 6 -8 3 1 6 -4 6 -11 0 -7 -6 -13 -13 -13 -7 0 -12 3 -11 6 1 3 -2 6 -8 6
-5 0 -9 -3 -7 -8 1 -4 -1 -6 -5 -5 -5 2 -8 -1 -8 -7 0 -5 3 -9 6 -8 3 1 6 -4
6 -11 0 -7 -6 -13 -13 -13 -7 0 -12 3 -11 6 1 3 -2 6 -8 6 -5 0 -9 -3 -7 -8 1
-4 -1 -6 -5 -5 -5 2 -8 -1 -8 -7 0 -5 3 -9 6 -8 3 1 6 -4 6 -11 0 -7 -6 -13
-13 -13 -7 0 -12 3 -11 6 1 3 -2 6 -8 6 -5 0 -9 -3 -7 -8 1 -4 -1 -6 -5 -5 -5
2 -8 -1 -8 -7 0 -5 3 -9 6 -8 3 1 6 -4 6 -11 0 -7 -6 -13 -13 -13 -7 0 -12 3
-11 6 1 3 -2 6 -8 6 -5 0 -9 -3 -7 -8 1 -4 -1 -6 -5 -5 -5 2 -8 -1 -8 -7 0 -5
3 -9 6 -8 3 1 6 -4 6 -11 0 -7 -6 -13 -13 -13 -7 0 -12 3 -11 6 1 3 -2 6 -8 6
-5 0 -9 -3 -7 -8 1 -4 -1 -6 -5 -5 -5 2 -8 -1 -8 -7 0 -5 3 -9 6 -8 3 1 6 -4
6 -11 0 -7 -6 -13 -13 -13 -7 0 -12 3 -11 6 1 3 -2 6 -8 6 -5 0 -9 -3 -7 -8 1
-4 -1 -6 -5 -5 -5 2 -8 -1 -8 -7 0 -5 3 -9 6 -8 3 1 6 -4 6 -11 0 -7 -6 -13
-13 -13 -7 0 -12 3 -11 6 1 3 -2 6 -8 6 -5 0 -9 -3 -8 -6 1 -3 -5 -6 -13 -6
-12 0 -12 3 2 18 11 12 12 19 4 24 -8 5 -6 13 6 26 12 13 21 16 29 9 8 -7 19
-2 34 14 15 16 19 26 11 31 -8 5 -6 13 6 26 12 13 21 16 29 9 8 -7 19 -2 34
14 15 16 19 26 11 31 -8 5 -6 13 6 26 12 13 21 16 29 9 8 -7 19 -2 34 14 15
16 19 26 11 31 -8 5 -6 13 6 26 12 13 21 16 29 9 8 -7 19 -2 34 14 15 16 19
26 11 31 -8 5 -6 13 6 26 12 13 21 16 29 9 8 -7 19 -2 34 14 15 16 19 26 11
31 -8 5 -6 13 6 26 12 13 21 16 29 9 8 -7 19 -2 34 14 15 16 19 26 11 31 -8 5
-6 13 6 26 12 13 21 16 29 9 9 -7 16 -6 25 5 7 8 9 15 4 15 -5 0 994 1003
2220 2229 1227 1227 2233 2228 2237 2226 4 -3 12 2 18 9 9 10 9 16 1 21 -8 5
-6 13 6 26 12 13 21 16 29 9 8 -7 19 -2 34 14 15 16 19 26 11 31 -8 5 -6 13 6
26 12 13 21 16 29 9 8 -7 19 -2 34 14 15 16 19 26 11 31 -8 5 -6 13 6 26 12
13 21 16 29 9 8 -7 19 -2 34 14 15 16 19 26 11 31 -8 5 -6 13 6 26 12 13 21
16 29 9 8 -7 19 -2 34 14 15 16 19 26 11 31 -8 5 -6 13 6 26 12 13 21 16 29 9
8 -7 19 -2 34 14 15 16 19 26 11 31 -8 5 -6 13 6 26 12 13 21 16 29 9 8 -7 19
-2 34 14 15 16 19 26 11 31 -8 5 -6 13 6 26 12 13 21 16 29 9 8 -7 19 -2 34
14 15 16 19 26 11 31 -8 5 -6 13 6 26 12 13 21 16 29 9 9 -7 16 -6 25 5 7 8 9
15 4 15 -5 0 720 729 1611 1620 891 891 1622 1620 1624 1620 2 0 -2 -6 -8 -14z"/>
<path d="M17576 7311 c-874 -874 -1584 -1591 -1579 -1594 5 -3 724 709 1597
1582 874 874 1584 1591 1579 1594 -5 3 -724 -709 -1597 -1582z"/>
<path d="M13096 2831 c-1214 -1214 -2204 -2211 -2199 -2214 5 -3 999 984 2208
2193 1209 1209 2204 2196 2209 2192 6 -3 5 1 -1 10 -7 8 -10 18 -6 21 3 4 4 7
2 7 -2 0 -998 -994 -2213 -2209z"/>
<path d="M15955 8567 c-33 -32 -55 -62 -55 -74 0 -26 -16 -38 -26 -22 -11 18
-33 -31 -34 -74 0 -51 15 -76 56 -93 39 -17 72 -11 129 22 22 12 53 25 69 28
38 7 69 28 107 76 17 21 36 37 40 34 15 -9 11 -17 -33 -71 -31 -37 -97 -88
-233 -178 -104 -70 -202 -133 -216 -140 -14 -8 -45 -30 -68 -49 -23 -19 -85
-58 -139 -87 -53 -29 -118 -68 -143 -88 -25 -20 -114 -72 -198 -116 -86 -45
-177 -101 -207 -127 -30 -26 -73 -60 -97 -76 -44 -30 -235 -113 -300 -130 -51
-14 -172 -85 -270 -159 -45 -34 -128 -94 -185 -132 -56 -39 -136 -104 -178
-146 -71 -71 -107 -93 -136 -83 -8 3 -1 11 17 21 70 37 178 191 209 297 8 30
32 80 51 110 90 137 104 189 73 286 -23 77 -45 111 -62 94 -5 -5 -34 -10 -64
-10 -66 0 -80 -7 -169 -90 -39 -37 -104 -84 -143 -106 -76 -41 -181 -99 -269
-149 -78 -44 -154 -106 -171 -140 -19 -40 -84 -88 -154 -114 -63 -23 -182 -90
-206 -115 -18 -19 -40 -39 -91 -84 -66 -57 -50 -12 23 67 60 66 68 79 68 115
0 36 -9 74 -30 132 -10 27 -52 23 -130 -13 -56 -25 -150 -113 -150 -140 0 -8
-24 -38 -54 -67 -45 -43 -55 -59 -61 -98 -8 -50 -74 -190 -105 -223 -11 -11
-34 -37 -51 -57 -17 -21 -37 -38 -45 -38 -8 0 -19 -9 -26 -20 -7 -11 -17 -20
-23 -20 -5 0 -36 -22 -67 -49 -100 -85 -179 -111 -341 -111 -64 1 -108 5 -118
13 -13 10 3 11 80 8 109 -4 230 13 281 39 36 19 126 87 219 167 53 46 111 143
111 188 0 21 -67 202 -83 223 -5 7 -18 10 -28 7 -10 -4 -34 4 -56 18 -67 44
-106 50 -245 44 -83 -4 -140 -12 -161 -22 -51 -24 -170 -132 -192 -174 -42
-80 -115 -231 -115 -239 0 -4 -5 -24 -11 -44 -11 -43 -35 -50 -49 -14 -5 13
-14 27 -20 31 -6 4 -15 17 -20 29 -15 42 -143 62 -189 30 -32 -23 -51 -74 -51
-137 0 -41 -7 -68 -30 -110 -16 -31 -30 -64 -30 -74 0 -9 -13 -40 -30 -69 -16
-29 -39 -83 -51 -121 -26 -80 -56 -143 -68 -143 -18 0 -41 12 -41 22 0 6 -13
27 -29 47 -15 20 -38 61 -49 91 -23 61 -103 244 -121 278 -10 18 -16 20 -31
12 -10 -5 -29 -10 -41 -10 -27 0 -89 -64 -89 -92 0 -11 -9 -33 -21 -49 -12
-17 -23 -47 -26 -68 -3 -21 -26 -78 -52 -127 -41 -77 -56 -96 -114 -139 -39
-30 -69 -60 -73 -75 -11 -42 -34 -80 -48 -80 -18 0 -63 95 -76 164 -9 46 -9
80 0 150 10 77 10 102 -4 165 -8 40 -23 89 -33 109 -22 44 -37 46 -218 33
-123 -10 -184 -27 -243 -71 -16 -12 -69 -32 -119 -44 -96 -25 -173 -58 -199
-87 -9 -10 -18 -36 -21 -59 -4 -28 -9 -37 -14 -28 -15 23 -30 -13 -26 -61 7
-64 32 -90 120 -123 89 -34 119 -65 140 -146 l13 -52 18 31 c13 21 16 40 12
65 -4 19 -3 34 3 34 5 0 12 -23 16 -50 7 -48 5 -55 -42 -131 -62 -103 -212
-276 -271 -313 -96 -60 -135 -66 -145 -23 -2 12 -19 87 -36 167 -17 80 -36
161 -43 180 -16 51 -81 194 -91 201 -5 4 -6 12 -3 18 9 14 -26 15 -40 2 -5 -6
-21 -4 -42 6 -34 17 -36 16 -189 -54 -38 -18 -61 -51 -78 -112 -7 -25 -42
-107 -77 -181 l-63 -135 0 -135 c0 -91 5 -146 14 -168 12 -28 11 -40 -4 -88
-13 -41 -16 -76 -12 -127 l5 -71 -19 34 c-10 19 -19 49 -20 65 -1 23 -3 18
-11 -20 -5 -27 -7 -69 -3 -92 5 -37 10 -43 31 -43 19 0 24 5 24 28 l1 27 15
-29 c11 -19 13 -31 5 -39 -5 -5 -52 -21 -103 -34 -51 -14 -124 -33 -163 -44
-38 -11 -99 -24 -135 -30 -137 -23 -269 -58 -373 -102 -59 -24 -110 -41 -113
-36 -2 5 37 29 88 55 51 26 134 75 183 109 50 34 162 97 250 139 148 71 212
114 236 158 24 44 27 113 10 187 -15 62 -24 80 -51 103 -46 38 -81 36 -182 -9
l-83 -36 -215 2 c-118 0 -242 -3 -275 -9 -33 -5 -107 -14 -165 -20 -106 -12
-147 -18 -275 -46 -38 -8 -135 -23 -215 -34 -79 -11 -158 -25 -175 -30 -16 -5
-138 -21 -270 -35 -132 -14 -274 -33 -315 -43 -41 -9 -101 -17 -133 -17 l-57
0 -5 395 c-3 217 -8 447 -11 510 -6 138 -34 267 -55 261 -8 -3 -37 -7 -66 -9
-73 -5 -88 -25 -102 -138 -6 -50 -11 -160 -11 -245 0 -171 25 -587 40 -662 12
-58 13 -127 2 -145 -5 -7 -35 -17 -68 -22 -32 -6 -68 -12 -79 -14 -11 -2 -56
-9 -100 -16 -44 -6 -93 -18 -110 -25 -16 -8 -97 -19 -180 -25 -82 -6 -168 -15
-190 -20 -47 -12 -205 -34 -399 -56 -77 -8 -147 -19 -157 -25 -56 -30 -72 0
-89 171 -10 90 -10 152 0 285 8 100 11 260 8 390 -5 199 -8 235 -38 375 -18
85 -37 171 -44 190 l-11 35 -63 -1 c-76 -2 -103 -14 -138 -66 -27 -39 -27 -39
-37 -306 -9 -269 4 -829 23 -1026 5 -50 8 -92 6 -94 -6 -6 -403 -21 -561 -22
-83 0 -166 -5 -185 -10 -19 -6 -107 -17 -195 -25 -314 -28 -413 -59 -425 -130
-3 -17 -13 -42 -24 -57 -35 -53 -3 -114 85 -158 83 -42 361 -133 489 -160 57
-12 155 -40 218 -62 125 -44 249 -68 357 -69 120 -1 162 -12 203 -52 34 -35
37 -41 42 -119 l5 -83 8 64 c4 35 7 91 7 123 0 37 4 57 10 53 16 -10 12 -237
-4 -287 -39 -117 -46 -298 -15 -413 28 -108 31 -127 20 -138 -17 -17 -25 0
-23 46 0 23 -7 80 -18 127 -11 47 -21 99 -23 115 -2 17 -5 -11 -6 -62 0 -50 6
-127 14 -170 8 -43 15 -93 15 -111 0 -82 54 -122 165 -122 121 0 152 36 134
155 -5 39 -14 176 -20 305 -8 199 -7 252 7 345 9 61 23 121 31 134 l15 24 172
-8 c94 -3 252 -13 351 -21 99 -8 286 -19 415 -24 275 -12 282 -14 290 -96 8
-79 21 -35 23 77 1 56 3 94 5 85 2 -9 8 -16 13 -16 12 0 11 -172 -2 -230 -11
-53 -41 -319 -64 -585 -10 -104 -20 -194 -22 -199 -19 -31 -26 -115 -32 -371
-6 -267 -9 -295 -30 -359 -14 -40 -26 -63 -31 -56 -11 17 -20 -13 -20 -64 0
-32 6 -50 25 -70 27 -29 46 -31 160 -16 87 11 117 39 136 127 11 50 92 253
160 402 11 24 44 81 74 126 29 45 70 116 90 156 64 127 253 408 342 508 47 52
106 123 131 156 25 33 76 94 113 136 38 42 91 111 120 154 73 111 138 172 269
254 63 39 127 81 141 92 19 15 61 27 140 40 63 10 159 30 214 44 55 14 168 32
250 40 204 20 213 22 355 71 121 42 303 90 425 114 33 6 134 29 225 50 91 21
216 48 279 60 63 12 245 63 407 115 161 52 327 102 369 110 46 10 118 37 183
68 59 29 126 60 149 70 23 9 57 30 76 46 43 38 88 57 307 133 96 33 216 77
265 98 102 43 213 81 500 174 194 62 313 105 520 185 55 22 111 42 125 46 46
12 104 39 165 76 123 76 358 184 738 338 l237 96 45 55 c24 30 57 72 72 92 32
43 62 53 42 16 -11 -22 -64 -96 -134 -188 -19 -25 -48 -69 -66 -99 -18 -30
-63 -87 -99 -125 -71 -75 -87 -100 -121 -190 -11 -31 -49 -99 -84 -150 -35
-52 -83 -132 -107 -178 -27 -53 -67 -109 -110 -154 -38 -40 -68 -80 -68 -92 0
-22 -26 -38 -33 -19 -3 7 -12 -6 -22 -27 -21 -49 -13 -99 21 -133 22 -22 32
-25 79 -21 72 6 135 46 199 126 28 35 89 105 136 155 47 51 97 110 111 132 14
22 56 87 92 145 36 58 89 134 118 170 29 36 76 101 105 145 29 44 85 116 124
160 85 96 116 146 130 211 19 84 93 176 230 287 41 34 104 88 141 121 36 34
103 88 150 120 46 33 125 98 174 146 163 157 228 212 299 258 94 59 207 136
281 190 56 41 353 192 378 192 18 0 229 110 267 140 19 15 55 37 79 49 23 13
98 57 164 98 130 82 180 109 297 162 166 76 294 183 340 286 35 78 54 158 47
201 -3 20 -20 64 -37 100 -28 56 -34 63 -55 58 -12 -3 -26 -1 -30 5 -3 6 -11
9 -16 6 -5 -4 -9 -1 -9 4 0 6 -3 10 -7 9 -5 -1 -21 4 -36 10 -17 7 -85 12
-168 12 l-139 0 -55 -53z m-2165 -1390 c0 -13 -13 -43 -28 -68 -16 -24 -32
-56 -35 -69 -3 -14 -26 -54 -51 -90 -82 -119 -117 -182 -127 -233 -5 -27 -13
-55 -19 -62 -21 -25 -109 -63 -185 -79 -113 -24 -200 -54 -270 -91 -72 -39
-298 -135 -375 -160 -69 -22 -243 -110 -337 -170 -39 -25 -120 -65 -180 -89
-59 -24 -147 -62 -196 -85 -48 -23 -111 -46 -140 -52 -28 -7 -77 -23 -107 -36
-64 -29 -230 -88 -310 -109 -30 -9 -95 -35 -145 -59 -150 -72 -206 -94 -308
-120 -54 -14 -115 -34 -135 -44 -21 -10 -79 -35 -131 -56 -52 -20 -138 -58
-191 -85 -53 -26 -141 -62 -196 -78 -120 -36 -233 -83 -294 -122 -25 -15 -121
-51 -214 -80 -92 -28 -191 -60 -220 -71 -28 -11 -90 -28 -138 -39 -48 -10
-115 -30 -150 -43 -35 -14 -94 -30 -133 -36 -38 -7 -90 -18 -115 -26 -82 -24
-100 -27 -100 -11 0 8 7 16 15 20 8 3 15 17 15 30 0 32 34 56 80 56 19 0 59
14 90 30 30 16 91 47 135 69 100 50 178 112 274 222 88 99 197 249 219 299 21
50 10 199 -23 320 l-26 95 25 22 c34 29 126 58 159 49 38 -9 46 -32 49 -134 2
-51 7 -87 12 -82 15 15 24 143 14 199 -10 57 5 122 24 103 6 -6 5 -18 -2 -32
-7 -13 -9 -37 -5 -59 16 -93 16 -148 0 -219 -13 -53 -16 -96 -12 -154 3 -44 3
-78 1 -75 -2 2 -12 37 -22 78 l-19 74 -6 -60 c-13 -111 21 -228 79 -274 37
-29 93 -42 150 -35 72 9 225 84 257 125 57 73 89 117 131 180 39 59 61 79 85
79 4 0 31 -29 59 -65 29 -36 64 -72 77 -81 33 -22 189 -44 245 -35 58 10 125
44 146 76 15 23 74 181 119 323 28 88 67 156 100 178 32 21 80 6 124 -40 18
-19 65 -49 104 -67 67 -31 78 -33 177 -32 112 1 262 33 340 73 76 39 201 143
276 230 74 87 107 109 164 110 8 0 53 14 100 31 47 16 118 37 159 45 95 20
190 68 266 135 33 29 89 72 125 96 36 23 94 67 129 98 69 59 190 127 286 162
44 16 67 31 88 59 15 20 27 43 27 50 0 8 5 14 10 14 6 0 10 -10 10 -23z
m-1515 -403 c-16 -88 -73 -146 -215 -220 -49 -26 -65 -29 -140 -28 -54 1 -98
7 -120 17 -28 13 -31 16 -13 17 16 0 28 12 42 38 11 22 48 68 83 104 103 106
205 126 275 52 l32 -35 16 31 c10 20 14 43 10 68 l-6 37 21 -25 c16 -18 20
-32 15 -56z m-3345 -1158 c0 -40 -9 -88 -25 -136 -14 -40 -25 -88 -25 -105 0
-18 -7 -51 -15 -74 -7 -22 -19 -78 -25 -123 -9 -69 -18 -93 -50 -141 -21 -32
-40 -63 -42 -69 -3 -7 -12 -9 -22 -5 -16 6 -17 15 -12 65 18 151 40 252 71
322 18 41 36 93 40 115 8 50 31 86 49 79 22 -8 36 28 36 91 0 35 4 54 10 50 6
-3 10 -34 10 -69z m-1270 -667 c0 -14 -98 -126 -226 -260 -51 -53 -101 -114
-111 -134 -10 -21 -34 -51 -54 -67 -33 -27 -43 -29 -175 -39 -76 -5 -222 -14
-324 -19 -159 -7 -318 -20 -450 -35 -19 -2 -78 -11 -130 -19 -52 -9 -114 -16
-137 -16 l-42 0 6 168 c6 186 13 208 65 216 18 3 89 14 158 25 69 11 185 27
258 35 72 9 189 23 260 31 336 40 435 47 618 39 l180 -7 45 46 c45 47 59 55
59 36z m-1879 -412 c2 -113 0 -209 -4 -213 -4 -4 -27 -9 -50 -11 -23 -1 -71
-7 -107 -12 -36 -6 -261 -16 -501 -22 -402 -11 -444 -11 -552 6 -65 9 -119 20
-121 24 -2 3 0 44 4 90 7 63 14 89 29 104 22 23 237 76 307 77 23 0 77 6 120
14 44 8 111 17 149 21 39 3 193 24 343 46 151 23 285 38 298 35 37 -10 44 -43
44 -201 0 -79 4 -146 9 -150 18 -11 20 12 9 101 -7 57 -8 135 -3 219 11 180
22 126 26 -128z m-1629 -69 c-2 -73 -6 -134 -7 -136 -4 -5 -150 20 -166 29 -9
5 -57 14 -105 20 -49 6 -100 13 -114 15 -14 2 -45 6 -70 9 -119 16 -117 29 7
39 82 6 160 22 293 60 74 21 87 20 114 -9 l23 -25 7 37 c3 21 6 53 6 71 0 18
4 31 8 28 5 -3 7 -65 4 -138z m2698 -287 l0 -50 -110 -111 c-61 -61 -117 -125
-126 -142 -9 -17 -33 -49 -54 -72 -20 -22 -45 -56 -54 -74 -52 -102 -145 -219
-266 -334 -127 -122 -231 -243 -298 -347 -37 -57 -61 -56 -37 3 15 36 23 116
30 301 3 72 9 175 15 230 5 55 10 164 10 242 0 178 -3 174 162 192 62 7 160
23 218 36 58 13 149 28 202 34 264 30 295 41 290 105 -2 21 1 36 7 36 6 0 11
-21 11 -49z"/>
<path d="M5732 5755 c-1 -88 7 -275 18 -415 11 -140 20 -267 20 -282 0 -16 5
-28 11 -28 14 0 8 146 -17 410 -9 96 -20 243 -23 325 l-7 150 -2 -160z"/>
</g>
</svg>
